<svg viewBox="0 0 14.5312 14.5312" fill="none" xmlns="http://www.w3.org/2000/svg">
<path id="Img &#226;&#134;&#146; &#239;&#129;&#170;" d="M12.4072 2.12402C13.8232 3.54004 14.5312 5.25391 14.5312 7.26562C14.5312 9.27734 13.8232 10.9912 12.4072 12.4072C10.9912 13.8232 9.27734 14.5312 7.26562 14.5312C5.25391 14.5312 3.54004 13.8232 2.12402 12.4072C0.708008 10.9912 0 9.27734 0 7.26562C0 5.25391 0.708008 3.54004 2.12402 2.12402C3.54004 0.708008 5.25391 0 7.26562 0C9.27734 0 10.9912 0.708008 12.4072 2.12402V2.12402M8.21777 9.12598C7.9541 8.8623 7.63672 8.73047 7.26562 8.73047C6.89453 8.73047 6.57715 8.8623 6.31348 9.12598C6.0498 9.38965 5.91797 9.70703 5.91797 10.0781C5.91797 10.4492 6.0498 10.7666 6.31348 11.0303C6.57715 11.2939 6.89453 11.4258 7.26562 11.4258C7.63672 11.4258 7.9541 11.2939 8.21777 11.0303C8.48145 10.7666 8.61328 10.4492 8.61328 10.0781C8.61328 9.70703 8.48145 9.38965 8.21777 9.12598V9.12598M5.97656 3.89648L6.21094 7.88086C6.21094 8.0957 6.32812 8.20312 6.5625 8.20312H7.96875C8.20312 8.20312 8.32031 8.0957 8.32031 7.88086L8.55469 3.89648C8.55469 3.7793 8.52051 3.68652 8.45215 3.61816C8.38379 3.5498 8.30078 3.51562 8.20312 3.51562H6.32812C6.23047 3.51562 6.14746 3.5498 6.0791 3.61816C6.01074 3.68652 5.97656 3.7793 5.97656 3.89648V3.89648" fill="currentColor"/>
</svg>
