<svg viewBox="0 0 16 16" fill="none" xmlns="http://www.w3.org/2000/svg">
<g clip-path="url(#clip0_21185_10618)">
<path d="M13.9406 7.14062C13.525 4.23438 11.0219 2 8 2C6.34375 2 4.84375 2.67187 3.75625 3.75625C3.75 3.7625 3.74375 3.76875 3.7375 3.775L3.5 4H4.99687C5.55 4 5.99687 4.44687 5.99687 5C5.99687 5.55313 5.55 6 4.99687 6H1C0.446875 6 0 5.55313 0 5V1C0 0.446875 0.446875 0 1 0C1.55313 0 2 0.446875 2 1V2.66875L2.35313 2.33437C3.79688 0.89375 5.79688 0 8 0C12.0312 0 15.3656 2.98125 15.9187 6.85938C15.9969 7.40625 15.6187 7.9125 15.0719 7.99062C14.525 8.06875 14.0188 7.6875 13.9406 7.14375V7.14062ZM0.08125 9.14062C0.003125 8.59375 0.38125 8.0875 0.928125 8.00937C1.475 7.93125 1.98125 8.3125 2.05938 8.85625C2.475 11.7625 4.97813 13.9969 8 13.9969C9.65625 13.9969 11.1562 13.325 12.2437 12.2406C12.25 12.2344 12.2562 12.2281 12.2625 12.2219L12.5 11.9969H11.0031C10.45 11.9969 10.0031 11.55 10.0031 10.9969C10.0031 10.4437 10.45 9.99687 11.0031 9.99687H15.0031C15.2688 9.99687 15.525 10.1031 15.7125 10.2937C15.9 10.4844 16.0031 10.7406 16.0031 11.0063L15.9719 14.975C15.9688 15.5281 15.5156 15.9719 14.9625 15.9656C14.4094 15.9594 13.9656 15.5094 13.9719 14.9563L13.9844 13.3469L13.65 13.6625C12.2031 15.1063 10.2031 16 8 16C3.96875 16 0.634375 13.0187 0.08125 9.14062Z" fill="currentColor"/>
</g>
<defs>
<clipPath id="clip0_21185_10618">
<rect width="16" height="16" fill="white"/>
</clipPath>
</defs>
</svg>
