<svg viewBox="0 0 12 16" fill="none" xmlns="http://www.w3.org/2000/svg">
<path id="arrow-down-to-line" d="M1 16C0.446875 16 0 15.5531 0 15C0 14.4469 0.446875 14 1 14H11C11.5531 14 12 14.4469 12 15C12 15.5531 11.5531 16 11 16H1ZM6.70625 11.7063C6.31563 12.0969 5.68125 12.0969 5.29063 11.7063L1.29062 7.70625C0.9 7.31563 0.9 6.68125 1.29062 6.29063C1.68125 5.9 2.31562 5.9 2.70625 6.29063L5 8.58438V1C5 0.446875 5.44687 0 6 0C6.55313 0 7 0.446875 7 1V8.58438L9.29375 6.29063C9.68437 5.9 10.3188 5.9 10.7094 6.29063C11.1 6.68125 11.1 7.31563 10.7094 7.70625L6.70937 11.7063H6.70625Z" fill="currentColor"/>
</svg>
