<svg viewBox="0 0 32 32" fill="none" xmlns="http://www.w3.org/2000/svg">
<g id="Components/Buttons/Secondary/32tall_Round/ArrowLeft/Default" clip-path="url(#clip0_0_49)">
<circle id="Oval" cx="16" cy="16" r="16" fill="white"/>
<path id="Outline" d="M16 0C7.16344 0 0 7.16344 0 16C0 24.8366 7.16344 32 16 32C24.8366 32 32 24.8366 32 16C32 7.16344 24.8366 0 16 0ZM16 1C24.2843 1 31 7.71573 31 16C31 24.2843 24.2843 31 16 31C7.71573 31 1 24.2843 1 16C1 7.71573 7.71573 1 16 1Z" fill="currentColor"/>
<path id="arrow-left" d="M8 16.002C8 15.7111 8.1249 15.4494 8.32324 15.2667L15.3682 8.22177C15.7586 7.83149 16.3917 7.83155 16.7822 8.22177C17.1728 8.61229 17.1728 9.24628 16.7822 9.6368L11.417 15.002L23 15.002C23.5523 15.002 24 15.4498 24 16.002C23.9998 16.5541 23.5521 17.002 23 17.002L11.415 17.002L16.7822 22.3682C17.1728 22.7588 17.1728 23.3918 16.7822 23.7823C16.3917 24.1728 15.7587 24.1728 15.3682 23.7823L8.3125 16.7276C8.12019 16.5455 8.00012 16.2878 8 16.002Z" fill="currentColor"/>
</g>
<defs>
<clipPath id="clip0_0_49">
<rect width="32" height="32" fill="white"/>
</clipPath>
</defs>
</svg>
