<svg viewBox="0 0 31.25 23.25" fill="none" xmlns="http://www.w3.org/2000/svg">
<g id="Img:margin">
<path id="Img &#226;&#134;&#146; &#239;&#129;&#170;" d="M27.8516 3.39844C30.1172 5.66406 31.25 8.40625 31.25 11.625C31.25 14.8438 30.1172 17.5859 27.8516 19.8516C25.5859 22.1172 22.8438 23.25 19.625 23.25C16.4062 23.25 13.6641 22.1172 11.3984 19.8516C9.13281 17.5859 8 14.8438 8 11.625C8 8.40625 9.13281 5.66406 11.3984 3.39844C13.6641 1.13281 16.4062 0 19.625 0C22.8438 0 25.5859 1.13281 27.8516 3.39844V3.39844M21.1484 14.6016C20.7266 14.1797 20.2188 13.9688 19.625 13.9688C19.0312 13.9688 18.5234 14.1797 18.1016 14.6016C17.6797 15.0234 17.4688 15.5312 17.4688 16.125C17.4688 16.7188 17.6797 17.2266 18.1016 17.6484C18.5234 18.0703 19.0312 18.2812 19.625 18.2812C20.2188 18.2812 20.7266 18.0703 21.1484 17.6484C21.5703 17.2266 21.7812 16.7188 21.7812 16.125C21.7812 15.5312 21.5703 15.0234 21.1484 14.6016V14.6016M17.5625 6.23438L17.9375 12.6094C17.9375 12.9531 18.125 13.125 18.5 13.125H20.75C21.125 13.125 21.3125 12.9531 21.3125 12.6094L21.6875 6.23438C21.6875 6.04688 21.6328 5.89844 21.5234 5.78906C21.4141 5.67969 21.2812 5.625 21.125 5.625H18.125C17.9688 5.625 17.8359 5.67969 17.7266 5.78906C17.6172 5.89844 17.5625 6.04688 17.5625 6.23438V6.23438" fill="currentColor"/>
</g>
</svg>
