<svg viewBox="0 0 16 10.2188" fill="none" xmlns="http://www.w3.org/2000/svg">
<g id="Container">
<path id="icon-chart" d="M10.9242 5.50781L6.37734 10.0547C6.26797 10.1641 6.13516 10.2188 5.97891 10.2188C5.82266 10.2188 5.68984 10.1641 5.58047 10.0547L5.06484 9.53906C4.95547 9.42969 4.89688 9.29688 4.88906 9.14062C4.88125 8.98438 4.93203 8.85156 5.04141 8.74219L8.67422 5.10938L5.04141 1.47656C4.93203 1.36719 4.88125 1.23438 4.88906 1.07812C4.89688 0.921875 4.95547 0.789062 5.06484 0.679688L5.58047 0.164062C5.68984 0.0546875 5.82266 0 5.97891 0C6.13516 0 6.26797 0.0546875 6.37734 0.164062L10.9242 4.71094C11.0492 4.82031 11.1117 4.95312 11.1117 5.10938C11.1117 5.26562 11.0492 5.39844 10.9242 5.50781V5.50781" fill="currentColor"/>
</g>
</svg>
