<svg viewBox="0 0 16 8.29792" fill="none" xmlns="http://www.w3.org/2000/svg">
<g id="chevron-up">
<path id="icon-chart" d="M8.53125 0.25L14.5938 6.3125C14.7396 6.45833 14.8125 6.63542 14.8125 6.84375C14.8125 7.05208 14.7396 7.22917 14.5938 7.375L13.9062 8.0625C13.7604 8.20833 13.5833 8.28646 13.375 8.29688C13.1667 8.30729 12.9896 8.23958 12.8438 8.09375L8 3.25L3.15625 8.09375C3.01042 8.23958 2.83333 8.30729 2.625 8.29688C2.41667 8.28646 2.23958 8.20833 2.09375 8.0625L1.40625 7.375C1.26042 7.22917 1.1875 7.05208 1.1875 6.84375C1.1875 6.63542 1.26042 6.45833 1.40625 6.3125L7.46875 0.25C7.61458 0.0833333 7.79167 0 8 0C8.20833 0 8.38542 0.0833333 8.53125 0.25V0.25" fill="currentColor"/>
</g>
</svg>
