<svg viewBox="0 0 24 24" fill="none" xmlns="http://www.w3.org/2000/svg">
<g id="SVG">
<path id="Vector" fill-rule="evenodd" clip-rule="evenodd" d="M11.976 13.97H11.736C11.3818 13.97 11.0946 13.6832 11.094 13.329V12.9C11.094 12.545 11.381 12.257 11.737 12.257H11.976C12.9842 12.2559 13.8013 11.4392 13.803 10.431C13.8019 9.42227 12.9847 8.60465 11.976 8.603C11.21 8.60402 10.5255 9.08149 10.26 9.8C10.137 10.134 9.908 10.43 9.612 10.43H9.076C8.721 10.43 8.427 10.14 8.492 9.79C8.82943 7.94731 10.5434 6.686 12.403 6.91183C14.2627 7.13766 15.625 8.77251 15.5116 10.6424C15.3982 12.5123 13.8483 13.9706 11.975 13.97H11.976M12.94 16.569C12.9389 16.968 12.616 17.2914 12.217 17.293H11.734C11.335 17.2914 11.0121 16.968 11.011 16.569V16.087C11.011 15.69 11.337 15.364 11.734 15.364H12.217C12.615 15.364 12.94 15.69 12.94 16.087V16.569V16.569M12 4.5C7.86064 4.5 4.5 7.86064 4.5 12C4.5 16.1394 7.86064 19.5 12 19.5C16.1394 19.5 19.5 16.1394 19.5 12C19.5 7.86064 16.1394 4.5 12 4.5V4.5" fill="currentColor"/>
</g>
</svg>
