<svg viewBox="0 0 16 16" fill="none" xmlns="http://www.w3.org/2000/svg">
<path id="Sparkles" d="M8.60865 0.387601C8.50026 0.150039 8.26264 0 8.00417 0C7.7457 0 7.50808 0.150039 7.39969 0.387601C7.39969 0.387601 6.64203 3.72304 5.18603 5.18052C3.73004 6.63799 0.391871 7.39359 0.391871 7.39359C0.150078 7.50612 0 7.74368 0 8.00208C0 8.26048 0.150078 8.49805 0.387702 8.60641C0.387702 8.60641 3.72587 9.36201 5.18187 10.8195C6.63786 12.277 7.39552 15.6124 7.39552 15.6124C7.50391 15.85 7.74153 16 8 16C8.25847 16 8.49609 15.85 8.60448 15.6124C8.60448 15.6124 9.36214 12.277 10.8181 10.8195C12.2741 9.36201 15.6123 8.60641 15.6123 8.60641C15.8499 8.49805 16 8.26048 16 8.00208C16 7.74368 15.8499 7.50612 15.6123 7.39776C15.6123 7.39776 12.2741 6.64216 10.8181 5.18468C9.36214 3.72721 8.60448 0.391769 8.60448 0.391769L8.60865 0.387601Z" fill="white"/>
</svg>
