<svg viewBox="0 0 16.5161 16.5161" fill="none" xmlns="http://www.w3.org/2000/svg">
<path id="print" d="M2.06452 2.06452C2.06452 0.925806 2.99032 0 4.12903 0H11.0161C11.5645 0 12.0903 0.216129 12.4774 0.603226L13.8484 1.97419C14.2355 2.36129 14.4516 2.8871 14.4516 3.43548V4.64516H2.06452V2.06452ZM0 8.25806C0 7.11935 0.925806 6.19355 2.06452 6.19355H14.4516C15.5903 6.19355 16.5161 7.11935 16.5161 8.25806V11.3548C16.5161 11.9258 16.0548 12.3871 15.4839 12.3871H14.4516V14.4516C14.4516 15.5903 13.5258 16.5161 12.3871 16.5161H4.12903C2.99032 16.5161 2.06452 15.5903 2.06452 14.4516V12.3871H1.03226C0.46129 12.3871 0 11.9258 0 11.3548V8.25806ZM4.12903 13.4194V14.4516H12.3871V11.3548H4.12903V13.4194ZM14.7097 8.77419C14.7097 8.56886 14.6281 8.37195 14.4829 8.22676C14.3377 8.08157 14.1408 8 13.9355 8C13.7302 8 13.5332 8.08157 13.388 8.22676C13.2429 8.37195 13.1613 8.56886 13.1613 8.77419C13.1613 8.97952 13.2429 9.17644 13.388 9.32163C13.5332 9.46682 13.7302 9.54839 13.9355 9.54839C14.1408 9.54839 14.3377 9.46682 14.4829 9.32163C14.6281 9.17644 14.7097 8.97952 14.7097 8.77419Z" fill="currentColor"/>
</svg>
