<svg viewBox="0 0 24 16" fill="none" xmlns="http://www.w3.org/2000/svg">
<g id="Img">
<path id="Symbol" d="M14 6C14.5625 6 15.0365 6.19271 15.4219 6.57812C15.8073 6.96354 16 7.4375 16 8V11.5C16 11.6458 15.9531 11.7656 15.8594 11.8594C15.7656 11.9531 15.6458 12 15.5 12H14V15C14 15.2708 13.901 15.5052 13.7031 15.7031C13.5052 15.901 13.2708 16 13 16H3C2.72917 16 2.49479 15.901 2.29688 15.7031C2.09896 15.5052 2 15.2708 2 15V12H0.5C0.354167 12 0.234375 11.9531 0.140625 11.8594C0.046875 11.7656 0 11.6458 0 11.5V8C0 7.4375 0.192708 6.96354 0.578125 6.57812C0.963542 6.19271 1.4375 6 2 6V1C2 0.729167 2.09896 0.494792 2.29688 0.296875C2.49479 0.0989583 2.72917 0 3 0H11.5938C11.8646 0 12.0938 0.09375 12.2812 0.28125L13.7188 1.71875C13.9062 1.90625 14 2.13542 14 2.40625V6V6M12 14V11H4V14H12V14M12 7V4H10.5C10.3542 4 10.2344 3.95312 10.1406 3.85938C10.0469 3.76562 10 3.64583 10 3.5V2H4V7H12V7M12.9688 9.03125C13.1146 9.17708 13.2917 9.25 13.5 9.25C13.7083 9.25 13.8854 9.17708 14.0312 9.03125C14.1771 8.88542 14.25 8.70833 14.25 8.5C14.25 8.29167 14.1771 8.11458 14.0312 7.96875C13.8854 7.82292 13.7083 7.75 13.5 7.75C13.2917 7.75 13.1146 7.82292 12.9688 7.96875C12.8229 8.11458 12.75 8.29167 12.75 8.5C12.75 8.70833 12.8229 8.88542 12.9688 9.03125V9.03125" fill="currentColor"/>
</g>
</svg>
