<svg viewBox="0 0 16 12" fill="none" xmlns="http://www.w3.org/2000/svg">
<g id="Img">
<path id="icon-chart" d="M10.4062 8C10.3021 8 10.2083 7.95833 10.125 7.875C10.0417 7.79167 10 7.69792 10 7.59375V3.40625C10 3.30208 10.0417 3.20833 10.125 3.125C10.2083 3.04167 10.3021 3 10.4062 3H11.5938C11.6979 3 11.7917 3.04167 11.875 3.125C11.9583 3.20833 12 3.30208 12 3.40625V7.59375C12 7.69792 11.9583 7.79167 11.875 7.875C11.7917 7.95833 11.6979 8 11.5938 8H10.4062V8M13.4062 8C13.3021 8 13.2083 7.95833 13.125 7.875C13.0417 7.79167 13 7.69792 13 7.59375V0.40625C13 0.302083 13.0417 0.208333 13.125 0.125C13.2083 0.0416667 13.3021 0 13.4062 0H14.5938C14.6979 0 14.7917 0.0416667 14.875 0.125C14.9583 0.208333 15 0.302083 15 0.40625V7.59375C15 7.69792 14.9583 7.79167 14.875 7.875C14.7917 7.95833 14.6979 8 14.5938 8H13.4062V8M4.40625 8C4.30208 8 4.20833 7.95833 4.125 7.875C4.04167 7.79167 4 7.69792 4 7.59375V5.40625C4 5.30208 4.04167 5.20833 4.125 5.125C4.20833 5.04167 4.30208 5 4.40625 5H5.59375C5.69792 5 5.79167 5.04167 5.875 5.125C5.95833 5.20833 6 5.30208 6 5.40625V7.59375C6 7.69792 5.95833 7.79167 5.875 7.875C5.79167 7.95833 5.69792 8 5.59375 8H4.40625V8M7.40625 8C7.30208 8 7.20833 7.95833 7.125 7.875C7.04167 7.79167 7 7.69792 7 7.59375V1.40625C7 1.30208 7.04167 1.20833 7.125 1.125C7.20833 1.04167 7.30208 1 7.40625 1H8.59375C8.69792 1 8.79167 1.04167 8.875 1.125C8.95833 1.20833 9 1.30208 9 1.40625V7.59375C9 7.69792 8.95833 7.79167 8.875 7.875C8.79167 7.95833 8.69792 8 8.59375 8H7.40625V8M15.5 10C15.6458 10 15.7656 10.0469 15.8594 10.1406C15.9531 10.2344 16 10.3542 16 10.5V11.5C16 11.6458 15.9531 11.7656 15.8594 11.8594C15.7656 11.9531 15.6458 12 15.5 12H1C0.729167 12 0.494792 11.901 0.296875 11.7031C0.0989583 11.5052 0 11.2708 0 11V0.5C0 0.354167 0.046875 0.234375 0.140625 0.140625C0.234375 0.046875 0.354167 0 0.5 0H1.5C1.64583 0 1.76562 0.046875 1.85938 0.140625C1.95312 0.234375 2 0.354167 2 0.5V10H15.5V10" fill="currentColor"/>
</g>
</svg>
