<svg preserveAspectRatio="none" width="100%" height="100%" overflow="visible" style="display: block;" viewBox="0 0 30.5454 29.4318" fill="none" xmlns="http://www.w3.org/2000/svg">
<g id="Group 17">
<path id="Sparkles" d="M13.6956 0.616638C13.5231 0.238699 13.1451 0 12.7339 0C12.3227 0 11.9447 0.238699 11.7722 0.616638C11.7722 0.616638 10.5471 5.92599 8.25051 8.24173C5.95392 10.5575 0.623431 11.7625 0.623431 11.7625C0.238761 11.9416 0 12.3195 0 12.7306C0 13.1417 0.238761 13.5196 0.616799 13.692C0.616799 13.692 5.94729 14.8971 8.24388 17.2128C10.5405 19.5286 11.7656 24.8379 11.7656 24.8379C11.938 25.2158 12.3161 25.4545 12.7273 25.4545C13.1385 25.4545 13.5165 25.2158 13.6889 24.8379C13.6889 24.8379 14.9141 19.5286 17.2107 17.2128C19.5073 14.8971 24.8377 13.692 24.8377 13.692C25.2158 13.5196 25.4545 13.1417 25.4545 12.7306C25.4545 12.3195 25.2158 11.9416 24.8377 11.7692C24.8377 11.7692 19.5073 10.5641 17.2107 8.24836C14.9141 5.93262 13.6889 0.623269 13.6889 0.623269L13.6956 0.616638Z" fill="var(--fill-0, #EA74E3)"/>
<path id="Sparkles_2" d="M25.8418 19.4967C25.7729 19.3455 25.6217 19.25 25.4572 19.25C25.2927 19.25 25.1415 19.3455 25.0725 19.4967C25.0725 19.4967 24.5825 21.6204 23.6638 22.5467C22.7452 23.473 20.613 23.955 20.613 23.955C20.4591 24.0266 20.3636 24.1778 20.3636 24.3422C20.3636 24.5067 20.4591 24.6578 20.6103 24.7268C20.6103 24.7268 22.7425 25.2088 23.6612 26.1351C24.5798 27.0614 25.0699 29.1852 25.0699 29.1852C25.1388 29.3363 25.29 29.4318 25.4545 29.4318C25.619 29.4318 25.7702 29.3363 25.8392 29.1852C25.8392 29.1852 26.3293 27.0614 27.2479 26.1351C28.1665 25.2088 30.2987 24.7268 30.2987 24.7268C30.4499 24.6578 30.5454 24.5067 30.5454 24.3422C30.5454 24.1778 30.4499 24.0266 30.2987 23.9577C30.2987 23.9577 28.1665 23.4756 27.2479 22.5493C26.3293 21.623 25.8392 19.4993 25.8392 19.4993L25.8418 19.4967Z" fill="var(--fill-0, #E1B8F8)"/>
</g>
</svg>
