<svg preserveAspectRatio="none" width="100%" height="100%" overflow="visible" style="display: block;" viewBox="0 0 24 24" fill="none" xmlns="http://www.w3.org/2000/svg">
<g id="Components/Icons/24/Close_Dummy/Default" clip-path="url(#clip0_0_21)">
<g id="Area">
</g>
<path id="fal fa-times" d="M13.6973 12.0002L18.8255 6.87209L19.883 5.81456C20.039 5.65855 20.039 5.40504 19.883 5.24904L18.7515 4.1175C18.5955 3.9615 18.3419 3.9615 18.1859 4.1175L12.0002 10.3032L5.81456 4.117C5.65855 3.961 5.40504 3.961 5.24904 4.117L4.117 5.24854C3.961 5.40454 3.961 5.65805 4.117 5.81406L10.3032 12.0002L4.117 18.1859C3.961 18.3419 3.961 18.5955 4.117 18.7515L5.24854 19.883C5.40454 20.039 5.65805 20.039 5.81406 19.883L12.0002 13.6973L17.1284 18.8255L18.1859 19.883C18.3419 20.039 18.5955 20.039 18.7515 19.883L19.883 18.7515C20.039 18.5955 20.039 18.3419 19.883 18.1859L13.6973 12.0002Z" fill="var(--fill-0, #414C52)"/>
</g>
<defs>
<clipPath id="clip0_0_21">
<rect width="24" height="24" fill="white"/>
</clipPath>
</defs>
</svg>
