<svg preserveAspectRatio="none" width="100%" height="100%" overflow="visible" style="display: block;" viewBox="0 0 60 60" fill="none" xmlns="http://www.w3.org/2000/svg">
<g id="Group">
<path id="Vector" fill-rule="evenodd" clip-rule="evenodd" d="M0 30C0 46.5575 13.4425 60 30 60C46.5575 60 60 46.5575 60 30C60 13.4425 46.5575 0 30 0C13.4425 0 0 13.4425 0 30V30" fill="var(--fill-0, #7029A5)"/>
<path id="Vector_2" fill-rule="evenodd" clip-rule="evenodd" d="M30 32C35.257 32 39.677 34.167 39.98 39.002L39.992 39.273L39.996 39.545L39.999 41.985L39.992 42.12C39.945 42.564 39.664 42.946 39.264 43.126L39.141 43.174L39.021 43.207L38.567 43.298L38.32 43.343L37.79 43.429L36.916 43.55L36.291 43.625L35.641 43.695L34.971 43.758L34.288 43.815L33.599 43.865L32.569 43.927L31.894 43.958L31.237 43.981L30.603 43.995L30 44L29.396 43.995L28.763 43.981L28.105 43.958L27.43 43.927L26.4 43.865L25.712 43.815L25.029 43.758L24.359 43.694L23.709 43.624L23.084 43.55L22.35 43.45L21.68 43.343L21.433 43.298L21.199 43.253L20.774 43.16L20.664 43.126C20.308 42.996 20.055 42.677 20.008 42.302L20.001 42.175L20.004 39.545L20.008 39.273C20.16 34.248 24.645 32 30 32V32M43 26C46.748 26 49.889 27.874 49.995 32.061L49.998 32.288L50 34.32C50 34.775 49.754 35.173 49.399 35.31L49.315 35.338L48.997 35.414L48.824 35.451L48.453 35.523L47.841 35.624L47.404 35.686L46.949 35.744L46.479 35.797L46.002 35.845L45.52 35.886L44.799 35.938L44.326 35.964L43.866 35.984L43.422 35.995L43 36L42.577 35.996L42.134 35.984L41.674 35.965L41.315 35.945C40.385 33.689 38.546 32.042 36.094 31.062C36.638 27.575 39.564 26 43 26V26M17 26C20.435 26 23.36 27.574 23.906 31.06C21.445 32.043 19.604 33.692 18.676 35.946L18.326 35.966L17.866 35.984L17.422 35.996L17 36L16.577 35.996L16.134 35.984L15.674 35.965L15.201 35.939L14.48 35.887L13.998 35.846L13.52 35.798L13.05 35.745L12.595 35.687L12.158 35.625L11.644 35.542L11.175 35.452C11.057 35.428 10.945 35.402 10.839 35.377L10.541 35.3C10.223 35.209 9.999 34.87 10 34.479L10.002 32.288C9.999 27.94 13.184 26 17 26V26M30 18C33.314 18 36 20.686 36 24C36 27.086 33.67 29.628 30.674 29.963L30.448 29.983L30.225 29.996L30 30L29.775 29.996L29.552 29.984C26.448 29.754 24 27.164 24 24C24 20.686 26.686 18 30 18V18M43 16C45.21 16 47 17.79 47 20C47 22.109 45.368 23.836 43.299 23.989L43.15 23.997L43 24L42.85 23.997C40.71 23.918 39 22.16 39 20C39 17.79 40.79 16 43 16V16M17 16C19.21 16 21 17.79 21 20C21 22.109 19.368 23.836 17.299 23.989L17.15 23.997L17 24L16.85 23.997C14.71 23.918 13 22.16 13 20C13 17.79 14.79 16 17 16V16" fill="var(--fill-0, white)"/>
</g>
</svg>
