<svg width="18" height="18" viewBox="0 0 18 18" fill="none" xmlns="http://www.w3.org/2000/svg">
<path d="M12.2344 2.6625C12.0938 2.71562 12 2.85 12 3C12 3.15 12.0938 3.28438 12.2344 3.3375L14 4L14.6625 5.76562C14.7156 5.90625 14.85 6 15 6C15.15 6 15.2844 5.90625 15.3375 5.76562L16 4L17.7656 3.3375C17.9062 3.28438 18 3.15 18 3C18 2.85 17.9062 2.71562 17.7656 2.6625L16 2L15.3375 0.234375C15.2844 0.09375 15.15 0 15 0C14.85 0 14.7156 0.09375 14.6625 0.234375L14 2L12.2344 2.6625ZM6.45312 3.29063C6.37187 3.1125 6.19375 3 6 3C5.80625 3 5.62813 3.1125 5.54688 3.29063L3.8875 6.88438L0.29375 8.54375C0.1125 8.62813 0 8.80625 0 9C0 9.19375 0.1125 9.37187 0.290625 9.45312L3.88438 11.1125L5.54375 14.7063C5.625 14.8844 5.80312 14.9969 5.99687 14.9969C6.19062 14.9969 6.36875 14.8844 6.45 14.7063L8.10938 11.1125L11.7031 9.45312C11.8813 9.37187 11.9937 9.19375 11.9937 9C11.9937 8.80625 11.8813 8.62813 11.7031 8.54688L8.10938 6.8875L6.45 3.29375L6.45312 3.29063ZM13 14L11.2344 14.6625C11.0938 14.7156 11 14.85 11 15C11 15.15 11.0938 15.2844 11.2344 15.3375L13 16L13.6625 17.7656C13.7156 17.9062 13.85 18 14 18C14.15 18 14.2844 17.9062 14.3375 17.7656L15 16L16.7656 15.3375C16.9062 15.2844 17 15.15 17 15C17 14.85 16.9062 14.7156 16.7656 14.6625L15 14L14.3375 12.2344C14.2844 12.0938 14.15 12 14 12C13.85 12 13.7156 12.0938 13.6625 12.2344L13 14Z" fill="#007694"/>
</svg>
