<svg preserveAspectRatio="none" width="100%" height="100%" overflow="visible" style="display: block;" viewBox="0 0 40 40" fill="none" xmlns="http://www.w3.org/2000/svg">
<g id="tower-circle">
<circle id="Ellipse 1" cx="20" cy="20" r="20" fill="var(--fill-0, #7029A5)"/>
<path id="Vector" d="M19.9809 10.7154L20.8655 7L20.9539 10.8038L22.5463 9.3L21.927 11.2462L24.3155 10.7154L22.5463 12.0423L25.2001 12.9269L22.6347 13.3692L23.6078 14.7846L22.104 14.2538L22.4578 16.1115L20.9539 15.1385L20.6001 17.0846L19.9809 14.8731L18.5655 16.2885L18.9193 14.0769L17.1501 14.6077L18.477 13.3692L16.5309 12.5731L18.7424 12.4846L16.7963 10.6269L19.5386 11.6L18.477 9.56538L19.9809 10.7154Z" fill="var(--fill-0, white)"/>
<path id="Vector_2" d="M16 18.2346L24.4038 17.35L24.4923 30L18.1231 29.2923L16 18.2346Z" fill="var(--fill-0, white)"/>
</g>
</svg>
