<svg preserveAspectRatio="none" width="100%" height="100%" overflow="visible" style="display: block;" viewBox="0 0 112.005 31.414" fill="none" xmlns="http://www.w3.org/2000/svg">
<g id="Layer_1-2">
<path id="Vector" d="M85.0852 21.7842C87.1778 20.4971 88.4625 18.2253 88.4871 15.7687C88.4871 10.3439 84.0894 8.29579 81.3095 8.29579H71.4555C70.2273 8.29579 68.5875 8.92403 68.5875 11.5846V28.1168C68.5583 29.0005 68.8969 29.8567 69.5227 30.4813C70.1485 31.1059 71.0054 31.4429 71.889 31.412C73.9308 31.412 75.2124 30.2215 75.2124 28.1168V23.405H78.2845L82.2707 29.8791C82.8881 30.8399 83.9557 31.4164 85.0978 31.4057C86.882 31.4057 88.5782 30.0487 88.5782 28.2645C88.5465 27.5427 88.3089 26.8452 87.8935 26.2541L85.0852 21.7842M79.7451 17.9959H75.2438V17.9959V13.7112V13.7112H79.7514C80.8289 13.7112 81.9503 14.5028 81.9503 15.7782C81.9503 17.1823 81.0456 17.9959 79.7514 17.9959H79.7451" fill="var(--fill-0, #FAD233)"/>
<path id="Vector_2" d="M108.688 8.09475C106.555 8.09475 105.355 9.3795 105.355 11.6789V20.2827L97.6124 10.2308C96.2522 8.49996 95.2502 8.08218 93.6136 8.08847C91.0252 8.08847 90.1269 9.60881 90.1269 12.2349C90.1269 12.2349 90.1269 28.1168 90.1269 28.1137C90.0969 28.9962 90.4338 29.8517 91.0576 30.4767C91.6814 31.1017 92.5363 31.4403 93.4188 31.412C95.4638 31.412 96.7517 30.2215 96.7517 28.1168V19.2335C96.736 19.2555 104.994 29.8696 105.016 29.8854C106.229 31.2392 107.064 31.3994 108.472 31.3963C111.057 31.3963 112.005 29.9419 112.005 27.3127V11.6789C112.002 9.3795 110.815 8.09475 108.688 8.09475V8.09475" fill="var(--fill-0, #FAD233)"/>
<path id="Vector_3" d="M40.8538 25.7892H31.3108C31.0471 25.7892 30.8333 25.5754 30.8333 25.3117V22.9307C30.835 22.6682 31.0483 22.4564 31.3108 22.4564H38.6392C40.1322 22.4546 41.3421 21.2448 41.3438 19.7518V19.7518C41.3446 19.0337 41.0602 18.3446 40.5529 17.8362C40.0457 17.3278 39.3573 17.0418 38.6392 17.0409H31.3108C31.0471 17.0409 30.8333 16.8272 30.8333 16.5635V14.1793C30.8333 13.9156 31.0471 13.7018 31.3108 13.7018H40.8381C42.3305 13.6983 43.5381 12.4866 43.5364 10.9941V10.9941C43.5346 9.50161 42.3243 8.29264 40.8318 8.29264H27.0167C25.7885 8.29264 24.1425 8.92089 24.1425 11.5815V27.9158C24.1425 30.5733 25.7885 31.2047 27.0167 31.2047H40.8381C41.8257 31.2383 42.7531 30.7306 43.2569 29.8805C43.7608 29.0303 43.7608 27.973 43.2569 27.1228C42.7531 26.2727 41.8257 25.765 40.8381 25.7986L40.8538 25.7892" fill="var(--fill-0, #FAD233)"/>
<path id="Vector_4" d="M61.5701 12.7846C61.1523 11.7386 60.6277 10.2151 59.4717 9.24443C58.4991 8.48742 57.2992 8.08119 56.0667 8.09161C54.9484 8.09161 53.4595 8.40573 52.627 9.24443C51.5999 10.2653 50.9967 11.682 50.5664 12.7846L45.396 26.8635C44.6829 27.0488 44.953 28.4153 45.1384 29.1283C45.5782 30.8403 47.5006 31.7355 49.1717 31.3052C50.1737 31.0476 50.9151 30.2246 51.4365 29.1534L52.0993 27.363H60.0309L60.6937 29.1534C61.1649 30.3565 61.9502 31.0382 62.9585 31.3052C64.6296 31.7355 66.552 30.8403 66.9918 29.1283C67.1771 28.4153 66.7374 26.8635 66.7374 26.8635L61.5701 12.7846M53.7924 22.0103L56.0635 14.9583L58.3346 22.0103H53.7924" fill="var(--fill-0, #FAD233)"/>
<path id="Vector_5" d="M4.45023 13.7395H12.7776L6.99461 19.4754H16.2643L20.2191 15.1311C21.6924 13.4097 22.6064 12.593 22.6064 11.0475C22.6064 9.50201 21.6641 8.66645 20.3228 7.18694L14.477 1.08984C12.9881 -0.399097 11.2415 -0.333131 9.79658 1.10869C8.42701 2.47826 8.69715 4.21221 10.0259 5.54094L12.8121 8.32091V8.32091H4.45023C2.95725 8.32265 1.74737 9.53252 1.74564 11.0255V11.0255C1.74398 11.7442 2.02809 12.434 2.53538 12.9431C3.04268 13.4522 3.73155 13.7387 4.45023 13.7395V13.7395" fill="var(--fill-0, #30C3E2)"/>
<path id="Vector_6" d="M19.8767 25.8269H10.139L15.6581 20.1036H6.36951L0.979187 25.5316C0.0232917 26.4866 -0.262814 27.9236 0.254394 29.1719C0.771602 30.4203 1.99016 31.2338 3.34138 31.2329H19.8767C21.3692 31.2329 22.5796 30.024 22.5813 28.5315V28.5315C22.5813 27.0378 21.3704 25.8269 19.8767 25.8269V25.8269" fill="var(--fill-0, #FAD233)"/>
</g>
</svg>
