<svg preserveAspectRatio="none" width="100%" height="100%" overflow="visible" style="display: block;" viewBox="0 0 12 12" fill="none" xmlns="http://www.w3.org/2000/svg">
<g id="Link">
<path id="sparkle-small" d="M6.45649 0.290701C6.3752 0.112529 6.19698 0 6.00313 0C5.80928 0 5.63106 0.112529 5.54977 0.290701C5.54977 0.290701 4.98152 2.79228 3.88953 3.88539C2.79753 4.97849 0.293903 5.54519 0.293903 5.54519C0.112559 5.62959 0 5.80776 0 6.00156C0 6.19536 0.112559 6.37353 0.290776 6.45481C0.290776 6.45481 2.7944 7.02151 3.8864 8.11461C4.9784 9.20772 5.54664 11.7093 5.54664 11.7093C5.62793 11.8875 5.80615 12 6 12C6.19385 12 6.37207 11.8875 6.45336 11.7093C6.45336 11.7093 7.0216 9.20772 8.1136 8.11461C9.2056 7.02151 11.7092 6.45481 11.7092 6.45481C11.8874 6.37353 12 6.19536 12 6.00156C12 5.80776 11.8874 5.62959 11.7092 5.54832C11.7092 5.54832 9.2056 4.98162 8.1136 3.88851C7.0216 2.79541 6.45336 0.293827 6.45336 0.293827L6.45649 0.290701Z" fill="var(--fill-0, #007694)"/>
</g>
</svg>
