<svg preserveAspectRatio="none" width="100%" height="100%" overflow="visible" style="display: block;" viewBox="0 0 21.1654 20.7946" fill="none" xmlns="http://www.w3.org/2000/svg">
<g id="sparkles">
<path id="Sparkles" d="M11.3879 0.50375C11.2445 0.195 10.9301 0 10.5882 0C10.2463 0 9.93199 0.195 9.7886 0.50375C9.7886 0.50375 8.7699 4.84112 6.86029 6.73292C4.95068 8.62471 0.518382 9.60917 0.518382 9.60917C0.198529 9.75542 0 10.0642 0 10.4C0 10.7358 0.198529 11.0446 0.512868 11.1854C0.512868 11.1854 4.94517 12.1699 6.85478 14.0617C8.76439 15.9535 9.78309 20.2908 9.78309 20.2908C9.92647 20.5996 10.2408 20.7946 10.5827 20.7946C10.9246 20.7946 11.239 20.5996 11.3824 20.2908C11.3824 20.2908 12.4011 15.9535 14.3107 14.0617C16.2203 12.1699 20.6526 11.1854 20.6526 11.1854C20.9669 11.0446 21.1654 10.7358 21.1654 10.4C21.1654 10.0642 20.9669 9.75542 20.6526 9.61458C20.6526 9.61458 16.2203 8.63013 14.3107 6.73833C12.4011 4.84654 11.3824 0.509167 11.3824 0.509167L11.3879 0.50375Z" fill="var(--fill-0, #EA74E3)"/>
</g>
</svg>
