<svg width="14" height="13" viewBox="0 0 14 13" fill="none" xmlns="http://www.w3.org/2000/svg">
<g clip-path="url(#clip0_21181_5152)">
<path d="M8.125 0C7.67559 0 7.3125 0.363086 7.3125 0.8125C7.3125 1.26191 7.67559 1.625 8.125 1.625H10.2248L5.11113 6.73867C4.79375 7.05605 4.79375 7.57148 5.11113 7.88887C5.42852 8.20625 5.94395 8.20625 6.26133 7.88887L11.375 2.7752V4.875C11.375 5.32441 11.7381 5.6875 12.1875 5.6875C12.6369 5.6875 13 5.32441 13 4.875V0.8125C13 0.363086 12.6369 0 12.1875 0H8.125ZM2.03125 2.4375C0.908984 2.4375 0 3.34648 0 4.46875V10.9688C0 12.091 0.908984 13 2.03125 13H8.53125C9.65352 13 10.5625 12.091 10.5625 10.9688V8.9375C10.5625 8.48809 10.1994 8.125 9.75 8.125C9.30059 8.125 8.9375 8.48809 8.9375 8.9375V10.9688C8.9375 11.1922 8.75469 11.375 8.53125 11.375H2.03125C1.80781 11.375 1.625 11.1922 1.625 10.9688V4.46875C1.625 4.24531 1.80781 4.0625 2.03125 4.0625H4.0625C4.51191 4.0625 4.875 3.69941 4.875 3.25C4.875 2.80059 4.51191 2.4375 4.0625 2.4375H2.03125Z" fill="#303B40"/>
</g>
<defs>
<clipPath id="clip0_21181_5152">
<rect width="14" height="13" fill="white"/>
</clipPath>
</defs>
</svg>
