<svg width="20" height="20" viewBox="0 0 20 20" fill="none" xmlns="http://www.w3.org/2000/svg">
<path d="M10.7608 0.484501C10.6253 0.187549 10.3283 0 10.0052 0C9.68213 0 9.3851 0.187549 9.24961 0.484501C9.24961 0.484501 8.30254 4.6538 6.48254 6.47564C4.66255 8.29749 0.489838 9.24199 0.489838 9.24199C0.187598 9.38265 0 9.6796 0 10.0026C0 10.3256 0.187598 10.6226 0.484627 10.758C0.484627 10.758 4.65734 11.7025 6.47733 13.5244C8.29733 15.3462 9.2444 19.5155 9.2444 19.5155C9.37989 19.8125 9.67692 20 10 20C10.3231 20 10.6201 19.8125 10.7556 19.5155C10.7556 19.5155 11.7027 15.3462 13.5227 13.5244C15.3427 11.7025 19.5154 10.758 19.5154 10.758C19.8124 10.6226 20 10.3256 20 10.0026C20 9.6796 19.8124 9.38265 19.5154 9.2472C19.5154 9.2472 15.3427 8.3027 13.5227 6.48085C11.7027 4.65901 10.7556 0.489711 10.7556 0.489711L10.7608 0.484501Z" fill="#EA74E3"/>
</svg>
